<svg width="24" height="24" viewBox="0 0 24 24" fill="none" xmlns="http://www.w3.org/2000/svg">
<path d="M12 23.0234C18.3047 23.0234 23.4844 17.8438 23.4844 11.5391C23.4844 5.22266 18.3047 0.0429688 11.9883 0.0429688C5.68359 0.0429688 0.503906 5.22266 0.503906 11.5391C0.503906 17.8438 5.68359 23.0234 12 23.0234ZM12 22.1328C6.14062 22.1328 1.39453 17.3867 1.39453 11.5391C1.39453 5.69141 6.14062 0.933594 11.9883 0.933594C17.8477 0.933594 22.5938 5.69141 22.5938 11.5391C22.5938 17.3867 17.8477 22.1328 12 22.1328ZM6.41016 6.80469C6.33984 7.42578 6.26953 8.15234 6.26953 8.58594C6.26953 12.6641 8.61328 15.3828 12.1523 15.3828C13.6875 15.3828 14.9531 14.6914 15.5156 13.7773C16.0195 14.4219 16.2305 15.0195 16.5938 16.2266C16.6758 16.4844 16.8516 16.5664 17.0273 16.5664C17.4141 16.5664 17.6836 16.2266 17.6836 15.7695C17.6836 14.9492 16.7227 13.6367 16.1836 13.1094C13.9102 10.9297 10.5938 12.207 9.36328 9.92188C9.26953 9.74609 9.48047 9.58203 9.65625 9.74609C11.4727 11.5273 13.6758 10.1094 16.1836 12.2773C16.3008 12.3945 16.4648 12.3477 16.4883 12.1953C16.5 12.0078 16.5234 11.7383 16.5234 11.457C16.5234 8.86719 14.7656 7.67188 12.1523 7.67188C11.3438 7.67188 10.4531 7.80078 9.67969 7.80078C8.55469 7.80078 7.51172 7.58984 6.82031 6.72266C6.66797 6.53516 6.43359 6.59375 6.41016 6.80469Z" fill="#00BF08"/>
</svg>
