<svg width="104" height="19" viewBox="0 0 104 19" fill="none" xmlns="http://www.w3.org/2000/svg">
<path d="M12.0906 6.18757C11.9713 5.7728 11.8037 5.40632 11.5878 5.08814C11.3719 4.76427 11.1077 4.49155 10.7952 4.26996C10.4883 4.04268 10.1361 3.86939 9.73837 3.75007C9.34632 3.63075 8.91166 3.57109 8.43439 3.57109C7.54234 3.57109 6.75825 3.79268 6.08212 4.23586C5.41166 4.67905 4.88893 5.32393 4.51393 6.17052C4.13893 7.01143 3.95143 8.03984 3.95143 9.25575C3.95143 10.4717 4.13609 11.5058 4.50541 12.3581C4.87473 13.2103 5.39746 13.8609 6.07359 14.3098C6.74973 14.7529 7.54803 14.9745 8.46848 14.9745C9.30371 14.9745 10.0167 14.8268 10.6077 14.5313C11.2042 14.2302 11.6588 13.8069 11.9713 13.2615C12.2895 12.716 12.4486 12.0711 12.4486 11.3268L13.1986 11.4376H8.69859V8.65916H16.0025V10.8581C16.0025 12.3921 15.6787 13.7103 15.0309 14.8126C14.3832 15.9092 13.4912 16.7558 12.3548 17.3524C11.2185 17.9433 9.91734 18.2387 8.45143 18.2387C6.81507 18.2387 5.37757 17.8779 4.13893 17.1563C2.9003 16.4291 1.93439 15.3978 1.24121 14.0626C0.553711 12.7217 0.209961 11.1308 0.209961 9.28984C0.209961 7.87507 0.414507 6.61371 0.823598 5.50575C1.23837 4.39212 1.81791 3.44893 2.56223 2.67621C3.30655 1.90348 4.17303 1.31541 5.16166 0.911998C6.1503 0.508589 7.22132 0.306885 8.37473 0.306885C9.36337 0.306885 10.2838 0.451771 11.1361 0.741544C11.9883 1.02564 12.744 1.42905 13.4031 1.95177C14.0679 2.4745 14.6105 3.09666 15.0309 3.81825C15.4514 4.53416 15.7213 5.32393 15.8406 6.18757H12.0906ZM17.7464 18.0001V4.90916H21.2663V7.19325H21.4026C21.6413 6.38075 22.0418 5.76712 22.6043 5.35234C23.1668 4.93189 23.8146 4.72166 24.5475 4.72166C24.7293 4.72166 24.9254 4.73302 25.1356 4.75575C25.3458 4.77848 25.5305 4.80973 25.6896 4.8495V8.07109C25.5191 8.01996 25.2833 7.9745 24.9822 7.93473C24.681 7.89496 24.4055 7.87507 24.1555 7.87507C23.6214 7.87507 23.1441 7.99155 22.7236 8.2245C22.3089 8.45177 21.9793 8.76996 21.735 9.17905C21.4964 9.58814 21.3771 10.0598 21.3771 10.5939V18.0001H17.7464ZM31.9632 18.2558C30.6166 18.2558 29.4575 17.9831 28.4859 17.4376C27.52 16.8865 26.7757 16.1081 26.253 15.1024C25.7303 14.091 25.4689 12.895 25.4689 11.5143C25.4689 10.1677 25.7303 8.98587 26.253 7.96882C26.7757 6.95177 27.5115 6.15916 28.4604 5.59098C29.4149 5.0228 30.5342 4.73871 31.8183 4.73871C32.682 4.73871 33.486 4.87791 34.2303 5.15632C34.9803 5.42905 35.6337 5.84098 36.1905 6.39212C36.753 6.94325 37.1905 7.63643 37.503 8.47166C37.8155 9.30121 37.9717 10.2728 37.9717 11.3865V12.3836H26.9178V10.1336H34.5541C34.5541 9.61087 34.4405 9.1478 34.2132 8.74439C33.986 8.34098 33.6706 8.02564 33.2672 7.79837C32.8695 7.56541 32.4064 7.44893 31.878 7.44893C31.3269 7.44893 30.8382 7.57677 30.4121 7.83246C29.9916 8.08246 29.6621 8.42052 29.4234 8.84666C29.1848 9.26712 29.0627 9.73587 29.057 10.2529V12.3921C29.057 13.0399 29.1763 13.5995 29.4149 14.0711C29.6592 14.5427 30.003 14.9063 30.4462 15.162C30.8894 15.4177 31.4149 15.5456 32.0229 15.5456C32.4263 15.5456 32.7956 15.4887 33.1308 15.3751C33.4661 15.2615 33.753 15.091 33.9916 14.8637C34.2303 14.6365 34.4121 14.3581 34.5371 14.0285L37.895 14.2501C37.7246 15.0569 37.3752 15.7615 36.8467 16.3637C36.324 16.9603 35.6479 17.4262 34.8183 17.7615C33.9945 18.091 33.0428 18.2558 31.9632 18.2558ZM45.347 18.2558C44.0004 18.2558 42.8413 17.9831 41.8697 17.4376C40.9038 16.8865 40.1595 16.1081 39.6367 15.1024C39.114 14.091 38.8527 12.895 38.8527 11.5143C38.8527 10.1677 39.114 8.98587 39.6367 7.96882C40.1595 6.95177 40.8953 6.15916 41.8441 5.59098C42.7987 5.0228 43.918 4.73871 45.2021 4.73871C46.0657 4.73871 46.8697 4.87791 47.614 5.15632C48.364 5.42905 49.0174 5.84098 49.5742 6.39212C50.1367 6.94325 50.5742 7.63643 50.8867 8.47166C51.1992 9.30121 51.3555 10.2728 51.3555 11.3865V12.3836H40.3015V10.1336H47.9379C47.9379 9.61087 47.8242 9.1478 47.597 8.74439C47.3697 8.34098 47.0544 8.02564 46.6509 7.79837C46.2532 7.56541 45.7902 7.44893 45.2617 7.44893C44.7106 7.44893 44.222 7.57677 43.7958 7.83246C43.3754 8.08246 43.0458 8.42052 42.8072 8.84666C42.5686 9.26712 42.4464 9.73587 42.4407 10.2529V12.3921C42.4407 13.0399 42.56 13.5995 42.7987 14.0711C43.043 14.5427 43.3867 14.9063 43.8299 15.162C44.2731 15.4177 44.7987 15.5456 45.4066 15.5456C45.81 15.5456 46.1794 15.4887 46.5146 15.3751C46.8498 15.2615 47.1367 15.091 47.3754 14.8637C47.614 14.6365 47.7958 14.3581 47.9208 14.0285L51.2788 14.2501C51.1083 15.0569 50.7589 15.7615 50.2305 16.3637C49.7078 16.9603 49.0316 17.4262 48.2021 17.7615C47.3782 18.091 46.4265 18.2558 45.347 18.2558ZM56.3955 10.4319V18.0001H52.7648V4.90916H56.225V7.21882H56.3784C56.6682 6.45746 57.154 5.85518 57.8358 5.412C58.5177 4.96314 59.3444 4.73871 60.3159 4.73871C61.225 4.73871 62.0177 4.93757 62.6938 5.3353C63.3699 5.73302 63.8955 6.30121 64.2705 7.03984C64.6455 7.7728 64.833 8.6478 64.833 9.66484V18.0001H61.2023V10.3126C61.208 9.51143 61.0035 8.88643 60.5887 8.43757C60.1739 7.98302 59.6029 7.75575 58.8756 7.75575C58.387 7.75575 57.9552 7.86087 57.5802 8.07109C57.2108 8.28132 56.9211 8.58814 56.7108 8.99155C56.5063 9.38927 56.4012 9.86939 56.3955 10.4319Z" fill="black"/>
<path d="M69.8119 18H65.8574L71.8829 0.54541H76.6386L82.6557 18H78.7011L74.3289 4.53405H74.1926L69.8119 18ZM69.5647 11.1392H78.9057V14.0199H69.5647V11.1392ZM89.0337 18.2557C87.6928 18.2557 86.5394 17.9716 85.5735 17.4034C84.6133 16.8295 83.8746 16.0341 83.3576 15.017C82.8462 14 82.5905 12.8295 82.5905 11.5057C82.5905 10.1648 82.8491 8.9886 83.3661 7.97723C83.8888 6.96019 84.6303 6.16757 85.5905 5.59939C86.5508 5.02553 87.6928 4.7386 89.0167 4.7386C90.1587 4.7386 91.1587 4.94598 92.0167 5.36075C92.8746 5.77553 93.5536 6.35791 94.0536 7.10791C94.5536 7.85791 94.8292 8.7386 94.8803 9.74996H91.4542C91.3576 9.09655 91.1019 8.57098 90.6871 8.17326C90.278 7.76985 89.7411 7.56814 89.0763 7.56814C88.5138 7.56814 88.0224 7.72155 87.6019 8.02837C87.1871 8.32951 86.8633 8.76985 86.6303 9.34939C86.3974 9.92894 86.2809 10.6307 86.2809 11.4545C86.2809 12.2898 86.3945 13 86.6218 13.5852C86.8547 14.1705 87.1814 14.6165 87.6019 14.9233C88.0224 15.2301 88.5138 15.3835 89.0763 15.3835C89.4911 15.3835 89.8633 15.2983 90.1928 15.1278C90.528 14.9574 90.8036 14.7102 91.0195 14.3864C91.2411 14.0568 91.386 13.6619 91.4542 13.2017H94.8803C94.8235 14.2017 94.5508 15.0824 94.0621 15.8438C93.5792 16.5994 92.9116 17.1903 92.0593 17.6165C91.207 18.0426 90.1985 18.2557 89.0337 18.2557ZM103.208 4.90905V7.63632H95.3244V4.90905H103.208ZM97.1142 1.77269H100.744V13.9773C100.744 14.3125 100.796 14.5739 100.898 14.7614C101 14.9432 101.142 15.071 101.324 15.1449C101.512 15.2187 101.727 15.2557 101.972 15.2557C102.142 15.2557 102.313 15.2415 102.483 15.2131C102.654 15.179 102.784 15.1534 102.875 15.1364L103.446 17.8381C103.264 17.8949 103.009 17.9602 102.679 18.0341C102.35 18.1136 101.949 18.1619 101.477 18.179C100.602 18.2131 99.8358 18.0966 99.1767 17.8295C98.5233 17.5625 98.0148 17.1477 97.6511 16.5852C97.2875 16.0227 97.1085 15.3125 97.1142 14.4545V1.77269Z" fill="#00BF08"/>
</svg>
