<svg width="214" height="37" viewBox="0 0 214 37" fill="none" xmlns="http://www.w3.org/2000/svg">
<path d="M18.6 36.5C15.8667 36.5 13.3833 36.05 11.15 35.15C8.91667 34.25 6.98333 32.9833 5.35 31.35C3.71667 29.7167 2.45 27.8 1.55 25.6C0.683333 23.4 0.25 21.0167 0.25 18.45C0.25 15.8833 0.7 13.5 1.6 11.3C2.53333 9.1 3.83333 7.2 5.5 5.6C7.2 3.96667 9.18333 2.7 11.45 1.8C13.7167 0.899999 16.2 0.449999 18.9 0.449999C20.7667 0.449999 22.55 0.699998 24.25 1.2C25.95 1.7 27.5 2.38333 28.9 3.25C30.3 4.11667 31.45 5.11667 32.35 6.25L27.7 11.15C26.4 9.91667 25.0167 8.96667 23.55 8.3C22.0833 7.6 20.5 7.25 18.8 7.25C17.2333 7.25 15.7833 7.53333 14.45 8.1C13.15 8.63333 12 9.41666 11 10.45C10.0333 11.45 9.26667 12.6333 8.7 14C8.16667 15.3667 7.9 16.85 7.9 18.45C7.9 20.0167 8.18333 21.4833 8.75 22.85C9.35 24.2167 10.15 25.4167 11.15 26.45C12.1833 27.45 13.3833 28.25 14.75 28.85C16.1167 29.4167 17.5833 29.7 19.15 29.7C20.25 29.7 21.2833 29.5333 22.25 29.2C23.25 28.8333 24.1167 28.35 24.85 27.75C25.6167 27.15 26.2167 26.45 26.65 25.65C27.0833 24.85 27.3 23.9833 27.3 23.05V21.85L28.25 23.25H18.35V16.95H34.45C34.5167 17.3167 34.5667 17.7667 34.6 18.3C34.6333 18.8333 34.65 19.35 34.65 19.85C34.6833 20.35 34.7 20.7667 34.7 21.1C34.7 23.3667 34.3 25.45 33.5 27.35C32.7 29.2167 31.5667 30.8333 30.1 32.2C28.6333 33.5667 26.9167 34.6333 24.95 35.4C22.9833 36.1333 20.8667 36.5 18.6 36.5ZM38.3684 36V9.55H45.2184L45.4684 18.05L44.2684 16.25C44.7017 14.9167 45.3517 13.7 46.2184 12.6C47.1184 11.5 48.1684 10.6333 49.3684 10C50.6017 9.33333 51.885 9 53.2184 9C53.8184 9 54.3684 9.05 54.8684 9.15C55.4017 9.21667 55.8517 9.33333 56.2184 9.5L54.3184 17.25C53.9517 17.0833 53.4684 16.9333 52.8684 16.8C52.3017 16.6333 51.7184 16.55 51.1184 16.55C50.3517 16.55 49.6184 16.7 48.9184 17C48.2517 17.2667 47.6517 17.6667 47.1184 18.2C46.6184 18.7 46.2184 19.3 45.9184 20C45.6517 20.7 45.5184 21.4833 45.5184 22.35V36H38.3684ZM69.7191 36.5C66.8525 36.5 64.3358 35.9167 62.1691 34.75C60.0358 33.5833 58.3691 31.9833 57.1691 29.95C56.0025 27.9167 55.4191 25.6 55.4191 23C55.4191 20.9333 55.7525 19.05 56.4191 17.35C57.0858 15.6167 58.0191 14.1333 59.2191 12.9C60.4191 11.6667 61.8358 10.7167 63.4691 10.05C65.1358 9.35 66.9525 9 68.9191 9C70.7191 9 72.3691 9.33333 73.8691 10C75.4025 10.6333 76.7191 11.55 77.8191 12.75C78.9525 13.9167 79.8191 15.3 80.4191 16.9C81.0191 18.5 81.3025 20.25 81.2691 22.15L81.2191 24.35H59.9691L58.8191 19.95H75.3691L74.5191 20.85V19.8C74.4525 18.8667 74.1525 18.05 73.6191 17.35C73.1191 16.65 72.4691 16.1 71.6691 15.7C70.8691 15.2667 69.9858 15.05 69.0191 15.05C67.5191 15.05 66.2525 15.35 65.2191 15.95C64.2191 16.5167 63.4525 17.35 62.9191 18.45C62.4191 19.5167 62.1691 20.85 62.1691 22.45C62.1691 24.0167 62.5025 25.4 63.1691 26.6C63.8358 27.7667 64.7858 28.6667 66.0191 29.3C67.2858 29.9333 68.7691 30.25 70.4691 30.25C71.6358 30.25 72.7025 30.0667 73.6691 29.7C74.6358 29.3333 75.6858 28.7 76.8191 27.8L80.1691 32.55C79.2358 33.3833 78.1858 34.1 77.0191 34.7C75.8525 35.3 74.6525 35.75 73.4191 36.05C72.1858 36.35 70.9525 36.5 69.7191 36.5ZM97.0648 36.5C94.1982 36.5 91.6815 35.9167 89.5148 34.75C87.3815 33.5833 85.7148 31.9833 84.5148 29.95C83.3482 27.9167 82.7648 25.6 82.7648 23C82.7648 20.9333 83.0982 19.05 83.7648 17.35C84.4315 15.6167 85.3648 14.1333 86.5648 12.9C87.7648 11.6667 89.1815 10.7167 90.8148 10.05C92.4815 9.35 94.2982 9 96.2648 9C98.0648 9 99.7148 9.33333 101.215 10C102.748 10.6333 104.065 11.55 105.165 12.75C106.298 13.9167 107.165 15.3 107.765 16.9C108.365 18.5 108.648 20.25 108.615 22.15L108.565 24.35H87.3148L86.1648 19.95H102.715L101.865 20.85V19.8C101.798 18.8667 101.498 18.05 100.965 17.35C100.465 16.65 99.8148 16.1 99.0148 15.7C98.2148 15.2667 97.3315 15.05 96.3648 15.05C94.8648 15.05 93.5982 15.35 92.5648 15.95C91.5648 16.5167 90.7982 17.35 90.2648 18.45C89.7648 19.5167 89.5148 20.85 89.5148 22.45C89.5148 24.0167 89.8482 25.4 90.5148 26.6C91.1815 27.7667 92.1315 28.6667 93.3648 29.3C94.6315 29.9333 96.1148 30.25 97.8148 30.25C98.9815 30.25 100.048 30.0667 101.015 29.7C101.982 29.3333 103.032 28.7 104.165 27.8L107.515 32.55C106.582 33.3833 105.532 34.1 104.365 34.7C103.198 35.3 101.998 35.75 100.765 36.05C99.5315 36.35 98.2982 36.5 97.0648 36.5ZM111.861 36V9.55H118.711L118.911 14.95L117.511 15.55C117.844 14.35 118.494 13.2667 119.461 12.3C120.427 11.3 121.577 10.5 122.911 9.9C124.244 9.3 125.627 9 127.061 9C129.061 9 130.727 9.4 132.061 10.2C133.427 11 134.444 12.2167 135.111 13.85C135.811 15.45 136.161 17.45 136.161 19.85V36H129.061V20.35C129.061 19.15 128.894 18.15 128.561 17.35C128.227 16.55 127.727 15.9667 127.061 15.6C126.394 15.2333 125.544 15.0667 124.511 15.1C123.711 15.1 122.977 15.2333 122.311 15.5C121.644 15.7333 121.044 16.0833 120.511 16.55C120.011 17.0167 119.627 17.55 119.361 18.15C119.094 18.75 118.961 19.4167 118.961 20.15V36H115.411C114.677 36 114.011 36 113.411 36C112.811 36 112.294 36 111.861 36Z" fill="#00BF08"/>
<path d="M137.814 36L151.564 0.999998H158.264L171.914 36H164.264L157.164 17.15C156.964 16.5833 156.714 15.8833 156.414 15.05C156.147 14.2167 155.864 13.3333 155.564 12.4C155.264 11.4667 154.981 10.5833 154.714 9.75C154.481 8.88333 154.281 8.18333 154.114 7.65L155.464 7.6C155.264 8.33333 155.031 9.11667 154.764 9.95C154.531 10.75 154.264 11.5833 153.964 12.45C153.697 13.3167 153.414 14.15 153.114 14.95C152.847 15.75 152.581 16.5167 152.314 17.25L145.264 36H137.814ZM144.214 28.65L146.714 22.55H162.664L165.214 28.65H144.214ZM184.4 36.5C181.866 36.5 179.6 35.9 177.6 34.7C175.6 33.5 174.016 31.8667 172.85 29.8C171.716 27.7 171.15 25.3667 171.15 22.8C171.15 20.1667 171.716 17.8167 172.85 15.75C174.016 13.65 175.6 12 177.6 10.8C179.6 9.6 181.866 9 184.4 9C186.766 9 188.916 9.45 190.85 10.35C192.816 11.2167 194.35 12.4167 195.45 13.95L191.6 18.65C191.133 18.0167 190.55 17.4333 189.85 16.9C189.15 16.3667 188.383 15.95 187.55 15.65C186.75 15.35 185.916 15.2 185.05 15.2C183.683 15.2 182.466 15.5333 181.4 16.2C180.333 16.8333 179.5 17.7333 178.9 18.9C178.3 20.0333 178 21.3167 178 22.75C178 24.15 178.316 25.4167 178.95 26.55C179.583 27.6833 180.433 28.5833 181.5 29.25C182.566 29.9167 183.75 30.25 185.05 30.25C185.916 30.25 186.733 30.1333 187.5 29.9C188.3 29.6333 189.033 29.25 189.7 28.75C190.366 28.25 191 27.6667 191.6 27L195.45 31.7C194.35 33.1333 192.783 34.3 190.75 35.2C188.75 36.0667 186.633 36.5 184.4 36.5ZM200.549 36V2.85H207.649V36H200.549ZM195.599 15.9V9.55H213.099V15.9H195.599Z" fill="black"/>
</svg>
